<?xml version="1.0" encoding="UTF-8" standalone="no"?>
<!DOCTYPE svg PUBLIC "-//W3C//DTD SVG 1.1//EN" "http://www.w3.org/Graphics/SVG/1.1/DTD/svg11.dtd">
<svg width="100%" height="100%" viewBox="0 0 32 32" version="1.1" xmlns="http://www.w3.org/2000/svg" xmlns:xlink="http://www.w3.org/1999/xlink" xml:space="preserve" xmlns:serif="http://www.serif.com/" style="fill-rule:evenodd;clip-rule:evenodd;stroke-linejoin:round;stroke-miterlimit:2;">
    <g transform="matrix(1,0,0,1,2.62606,17.4615)">
        <rect x="2.997" y="10.006" width="23.166" height="3.02" style="fill:white;"/>
    </g>
    <g transform="matrix(6.12323e-17,-1,1,6.12323e-17,-24.8528,30.6462)">
        <path d="M1.645,27.061L3.132,30.034L0.159,30.034L1.645,27.061Z" style="fill:white;"/>
    </g>
    <g id="_8x8" serif:id="8x8" transform="matrix(0.476654,0,0,0.476654,2.41537,2.25351)">
        <g id="_8x81" serif:id="8x8" transform="matrix(0.572552,0,0,0.572552,2.42566,0.195658)">
            <g id="_4x4" serif:id="4x4">
                <g id="_2x2" serif:id="2x2" transform="matrix(0.853365,0,0,0.938069,0.468274,-1.10045)">
                    <rect x="2.039" y="3.154" width="11.718" height="10.66" style="fill:white;"/>
                </g>
                <g id="_2x21" serif:id="2x2" transform="matrix(0.853365,0,0,0.938069,11.4683,-1.10045)">
                    <rect x="2.039" y="3.154" width="11.718" height="10.66" style="fill:white;"/>
                </g>
                <g id="_2x22" serif:id="2x2" transform="matrix(0.853365,0,0,0.938069,0.468274,9.89955)">
                    <rect x="2.039" y="3.154" width="11.718" height="10.66" style="fill:white;"/>
                </g>
                <g id="_2x23" serif:id="2x2" transform="matrix(0.853365,0,0,0.938069,11.4683,9.89955)">
                    <rect x="2.039" y="3.154" width="11.718" height="10.66" style="fill:white;"/>
                </g>
            </g>
            <g id="_4x41" serif:id="4x4" transform="matrix(1,0,0,1,22,0)">
                <g id="_2x24" serif:id="2x2" transform="matrix(0.853365,0,0,0.938069,0.468274,-1.10045)">
                    <rect x="2.039" y="3.154" width="11.718" height="10.66" style="fill:white;"/>
                </g>
                <g id="_2x25" serif:id="2x2" transform="matrix(0.853365,0,0,0.938069,11.4683,-1.10045)">
                    <rect x="2.039" y="3.154" width="11.718" height="10.66" style="fill:white;"/>
                </g>
                <g id="_2x26" serif:id="2x2" transform="matrix(0.853365,0,0,0.938069,0.468274,9.89955)">
                    <rect x="2.039" y="3.154" width="11.718" height="10.66" style="fill:white;"/>
                </g>
                <g id="_2x27" serif:id="2x2" transform="matrix(0.853365,0,0,0.938069,11.4683,9.89955)">
                    <rect x="2.039" y="3.154" width="11.718" height="10.66" style="fill:white;"/>
                </g>
            </g>
            <g id="_4x42" serif:id="4x4" transform="matrix(1,0,0,1,0,22)">
                <g id="_2x28" serif:id="2x2" transform="matrix(0.853365,0,0,0.938069,0.468274,-1.10045)">
                    <rect x="2.039" y="3.154" width="11.718" height="10.66" style="fill:white;"/>
                </g>
                <g id="_2x29" serif:id="2x2" transform="matrix(0.853365,0,0,0.938069,11.4683,-1.10045)">
                    <rect x="2.039" y="3.154" width="11.718" height="10.66" style="fill:white;"/>
                </g>
                <g id="_2x210" serif:id="2x2" transform="matrix(0.853365,0,0,0.938069,0.468274,9.89955)">
                    <rect x="2.039" y="3.154" width="11.718" height="10.66" style="fill:white;"/>
                </g>
                <g id="_2x211" serif:id="2x2" transform="matrix(0.853365,0,0,0.938069,11.4683,9.89955)">
                    <rect x="2.039" y="3.154" width="11.718" height="10.66" style="fill:white;"/>
                </g>
            </g>
            <g id="_4x43" serif:id="4x4" transform="matrix(1,0,0,1,22,22)">
                <g id="_2x212" serif:id="2x2" transform="matrix(0.853365,0,0,0.938069,0.468274,-1.10045)">
                    <rect x="2.039" y="3.154" width="11.718" height="10.66" style="fill:white;"/>
                </g>
                <g id="_2x213" serif:id="2x2" transform="matrix(0.853365,0,0,0.938069,11.4683,-1.10045)">
                    <rect x="2.039" y="3.154" width="11.718" height="10.66" style="fill:white;"/>
                </g>
                <g id="_2x214" serif:id="2x2" transform="matrix(0.853365,0,0,0.938069,0.468274,9.89955)">
                    <rect x="2.039" y="3.154" width="11.718" height="10.66" style="fill:white;"/>
                </g>
                <g id="_2x215" serif:id="2x2" transform="matrix(0.853365,0,0,0.938069,11.4683,9.89955)">
                    <rect x="2.039" y="3.154" width="11.718" height="10.66" style="fill:white;"/>
                </g>
            </g>
        </g>
        <g id="_8x82" serif:id="8x8" transform="matrix(0.572552,0,0,0.572552,27.4257,0.195658)">
            <g id="_4x44" serif:id="4x4">
                <g id="_2x216" serif:id="2x2" transform="matrix(0.853365,0,0,0.938069,0.468274,-1.10045)">
                    <rect x="2.039" y="3.154" width="11.718" height="10.66" style="fill:white;"/>
                </g>
                <g id="_2x217" serif:id="2x2" transform="matrix(0.853365,0,0,0.938069,11.4683,-1.10045)">
                    <rect x="2.039" y="3.154" width="11.718" height="10.66" style="fill:white;"/>
                </g>
                <g id="_2x218" serif:id="2x2" transform="matrix(0.853365,0,0,0.938069,0.468274,9.89955)">
                    <rect x="2.039" y="3.154" width="11.718" height="10.66" style="fill:white;"/>
                </g>
                <g id="_2x219" serif:id="2x2" transform="matrix(0.853365,0,0,0.938069,11.4683,9.89955)">
                    <rect x="2.039" y="3.154" width="11.718" height="10.66" style="fill:white;"/>
                </g>
            </g>
            <g id="_4x45" serif:id="4x4" transform="matrix(1,0,0,1,22,0)">
                <g id="_2x220" serif:id="2x2" transform="matrix(0.853365,0,0,0.938069,0.468274,-1.10045)">
                    <rect x="2.039" y="3.154" width="11.718" height="10.66" style="fill:white;"/>
                </g>
                <g id="_2x221" serif:id="2x2" transform="matrix(0.853365,0,0,0.938069,11.4683,-1.10045)">
                    <rect x="2.039" y="3.154" width="11.718" height="10.66" style="fill:white;"/>
                </g>
                <g id="_2x222" serif:id="2x2" transform="matrix(0.853365,0,0,0.938069,0.468274,9.89955)">
                    <rect x="2.039" y="3.154" width="11.718" height="10.66" style="fill:white;"/>
                </g>
                <g id="_2x223" serif:id="2x2" transform="matrix(0.853365,0,0,0.938069,11.4683,9.89955)">
                    <rect x="2.039" y="3.154" width="11.718" height="10.66" style="fill:white;"/>
                </g>
            </g>
            <g id="_4x46" serif:id="4x4" transform="matrix(1,0,0,1,0,22)">
                <g id="_2x224" serif:id="2x2" transform="matrix(0.853365,0,0,0.938069,0.468274,-1.10045)">
                    <rect x="2.039" y="3.154" width="11.718" height="10.66" style="fill:white;"/>
                </g>
                <g id="_2x225" serif:id="2x2" transform="matrix(0.853365,0,0,0.938069,11.4683,-1.10045)">
                    <rect x="2.039" y="3.154" width="11.718" height="10.66" style="fill:white;"/>
                </g>
                <g id="_2x226" serif:id="2x2" transform="matrix(0.853365,0,0,0.938069,0.468274,9.89955)">
                    <rect x="2.039" y="3.154" width="11.718" height="10.66" style="fill:white;"/>
                </g>
                <g id="_2x227" serif:id="2x2" transform="matrix(0.853365,0,0,0.938069,11.4683,9.89955)">
                    <rect x="2.039" y="3.154" width="11.718" height="10.66" style="fill:white;"/>
                </g>
            </g>
            <g id="_4x47" serif:id="4x4" transform="matrix(1,0,0,1,22,22)">
                <g id="_2x228" serif:id="2x2" transform="matrix(0.853365,0,0,0.938069,0.468274,-1.10045)">
                    <rect x="2.039" y="3.154" width="11.718" height="10.66" style="fill:white;"/>
                </g>
                <g id="_2x229" serif:id="2x2" transform="matrix(0.853365,0,0,0.938069,11.4683,-1.10045)">
                    <rect x="2.039" y="3.154" width="11.718" height="10.66" style="fill:white;"/>
                </g>
                <g id="_2x230" serif:id="2x2" transform="matrix(0.853365,0,0,0.938069,0.468274,9.89955)">
                    <rect x="2.039" y="3.154" width="11.718" height="10.66" style="fill:white;"/>
                </g>
                <g id="_2x231" serif:id="2x2" transform="matrix(0.853365,0,0,0.938069,11.4683,9.89955)">
                    <rect x="2.039" y="3.154" width="11.718" height="10.66" style="fill:white;"/>
                </g>
            </g>
        </g>
        <g id="_8x83" serif:id="8x8" transform="matrix(0.572552,0,0,0.572552,2.42566,25.1957)">
            <g id="_4x48" serif:id="4x4">
                <g id="_2x232" serif:id="2x2" transform="matrix(0.853365,0,0,0.938069,0.468274,-1.10045)">
                    <rect x="2.039" y="3.154" width="11.718" height="10.66" style="fill:white;"/>
                </g>
                <g id="_2x233" serif:id="2x2" transform="matrix(0.853365,0,0,0.938069,11.4683,-1.10045)">
                    <rect x="2.039" y="3.154" width="11.718" height="10.66" style="fill:white;"/>
                </g>
                <g id="_2x234" serif:id="2x2" transform="matrix(0.853365,0,0,0.938069,0.468274,9.89955)">
                    <rect x="2.039" y="3.154" width="11.718" height="10.66" style="fill:white;"/>
                </g>
                <g id="_2x235" serif:id="2x2" transform="matrix(0.853365,0,0,0.938069,11.4683,9.89955)">
                    <rect x="2.039" y="3.154" width="11.718" height="10.66" style="fill:white;"/>
                </g>
            </g>
            <g id="_4x49" serif:id="4x4" transform="matrix(1,0,0,1,22,0)">
                <g id="_2x236" serif:id="2x2" transform="matrix(0.853365,0,0,0.938069,0.468274,-1.10045)">
                    <rect x="2.039" y="3.154" width="11.718" height="10.66" style="fill:white;"/>
                </g>
                <g id="_2x237" serif:id="2x2" transform="matrix(0.853365,0,0,0.938069,11.4683,-1.10045)">
                    <rect x="2.039" y="3.154" width="11.718" height="10.66" style="fill:white;"/>
                </g>
                <g id="_2x238" serif:id="2x2" transform="matrix(0.853365,0,0,0.938069,0.468274,9.89955)">
                    <rect x="2.039" y="3.154" width="11.718" height="10.66" style="fill:white;"/>
                </g>
                <g id="_2x239" serif:id="2x2" transform="matrix(0.853365,0,0,0.938069,11.4683,9.89955)">
                    <rect x="2.039" y="3.154" width="11.718" height="10.66" style="fill:white;"/>
                </g>
            </g>
            <g id="_4x410" serif:id="4x4" transform="matrix(1,0,0,1,0,22)">
                <g id="_2x240" serif:id="2x2" transform="matrix(0.853365,0,0,0.938069,0.468274,-1.10045)">
                    <rect x="2.039" y="3.154" width="11.718" height="10.66" style="fill:white;"/>
                </g>
                <g id="_2x241" serif:id="2x2" transform="matrix(0.853365,0,0,0.938069,11.4683,-1.10045)">
                    <rect x="2.039" y="3.154" width="11.718" height="10.66" style="fill:white;"/>
                </g>
                <g id="_2x242" serif:id="2x2" transform="matrix(0.853365,0,0,0.938069,0.468274,9.89955)">
                    <rect x="2.039" y="3.154" width="11.718" height="10.66" style="fill:white;"/>
                </g>
                <g id="_2x243" serif:id="2x2" transform="matrix(0.853365,0,0,0.938069,11.4683,9.89955)">
                    <rect x="2.039" y="3.154" width="11.718" height="10.66" style="fill:white;"/>
                </g>
            </g>
            <g id="_4x411" serif:id="4x4" transform="matrix(1,0,0,1,22,22)">
                <g id="_2x244" serif:id="2x2" transform="matrix(0.853365,0,0,0.938069,0.468274,-1.10045)">
                    <rect x="2.039" y="3.154" width="11.718" height="10.66" style="fill:white;"/>
                </g>
                <g id="_2x245" serif:id="2x2" transform="matrix(0.853365,0,0,0.938069,11.4683,-1.10045)">
                    <rect x="2.039" y="3.154" width="11.718" height="10.66" style="fill:white;"/>
                </g>
                <g id="_2x246" serif:id="2x2" transform="matrix(0.853365,0,0,0.938069,0.468274,9.89955)">
                    <rect x="2.039" y="3.154" width="11.718" height="10.66" style="fill:white;"/>
                </g>
                <g id="_2x247" serif:id="2x2" transform="matrix(0.853365,0,0,0.938069,11.4683,9.89955)">
                    <rect x="2.039" y="3.154" width="11.718" height="10.66" style="fill:white;"/>
                </g>
            </g>
        </g>
        <g id="_8x84" serif:id="8x8" transform="matrix(0.572552,0,0,0.572552,27.4257,25.1957)">
            <g id="_4x412" serif:id="4x4">
                <g id="_2x248" serif:id="2x2" transform="matrix(0.853365,0,0,0.938069,0.468274,-1.10045)">
                    <rect x="2.039" y="3.154" width="11.718" height="10.66" style="fill:white;"/>
                </g>
                <g id="_2x249" serif:id="2x2" transform="matrix(0.853365,0,0,0.938069,11.4683,-1.10045)">
                    <rect x="2.039" y="3.154" width="11.718" height="10.66" style="fill:white;"/>
                </g>
                <g id="_2x250" serif:id="2x2" transform="matrix(0.853365,0,0,0.938069,0.468274,9.89955)">
                    <rect x="2.039" y="3.154" width="11.718" height="10.66" style="fill:white;"/>
                </g>
                <g id="_2x251" serif:id="2x2" transform="matrix(0.853365,0,0,0.938069,11.4683,9.89955)">
                    <rect x="2.039" y="3.154" width="11.718" height="10.66" style="fill:white;"/>
                </g>
            </g>
            <g id="_4x413" serif:id="4x4" transform="matrix(1,0,0,1,22,0)">
                <g id="_2x252" serif:id="2x2" transform="matrix(0.853365,0,0,0.938069,0.468274,-1.10045)">
                    <rect x="2.039" y="3.154" width="11.718" height="10.66" style="fill:white;"/>
                </g>
                <g id="_2x253" serif:id="2x2" transform="matrix(0.853365,0,0,0.938069,11.4683,-1.10045)">
                    <rect x="2.039" y="3.154" width="11.718" height="10.66" style="fill:white;"/>
                </g>
                <g id="_2x254" serif:id="2x2" transform="matrix(0.853365,0,0,0.938069,0.468274,9.89955)">
                    <rect x="2.039" y="3.154" width="11.718" height="10.66" style="fill:white;"/>
                </g>
                <g id="_2x255" serif:id="2x2" transform="matrix(0.853365,0,0,0.938069,11.4683,9.89955)">
                    <rect x="2.039" y="3.154" width="11.718" height="10.66" style="fill:white;"/>
                </g>
            </g>
            <g id="_4x414" serif:id="4x4" transform="matrix(1,0,0,1,0,22)">
                <g id="_2x256" serif:id="2x2" transform="matrix(0.853365,0,0,0.938069,0.468274,-1.10045)">
                    <rect x="2.039" y="3.154" width="11.718" height="10.66" style="fill:white;"/>
                </g>
                <g id="_2x257" serif:id="2x2" transform="matrix(0.853365,0,0,0.938069,11.4683,-1.10045)">
                    <rect x="2.039" y="3.154" width="11.718" height="10.66" style="fill:white;"/>
                </g>
                <g id="_2x258" serif:id="2x2" transform="matrix(0.853365,0,0,0.938069,0.468274,9.89955)">
                    <rect x="2.039" y="3.154" width="11.718" height="10.66" style="fill:white;"/>
                </g>
                <g id="_2x259" serif:id="2x2" transform="matrix(0.853365,0,0,0.938069,11.4683,9.89955)">
                    <rect x="2.039" y="3.154" width="11.718" height="10.66" style="fill:white;"/>
                </g>
            </g>
            <g id="_4x415" serif:id="4x4" transform="matrix(1,0,0,1,22,22)">
                <g id="_2x260" serif:id="2x2" transform="matrix(0.853365,0,0,0.938069,0.468274,-1.10045)">
                    <rect x="2.039" y="3.154" width="11.718" height="10.66" style="fill:white;"/>
                </g>
                <g id="_2x261" serif:id="2x2" transform="matrix(0.853365,0,0,0.938069,11.4683,-1.10045)">
                    <rect x="2.039" y="3.154" width="11.718" height="10.66" style="fill:white;"/>
                </g>
                <g id="_2x262" serif:id="2x2" transform="matrix(0.853365,0,0,0.938069,0.468274,9.89955)">
                    <rect x="2.039" y="3.154" width="11.718" height="10.66" style="fill:white;"/>
                </g>
                <g id="_2x263" serif:id="2x2" transform="matrix(0.853365,0,0,0.938069,11.4683,9.89955)">
                    <rect x="2.039" y="3.154" width="11.718" height="10.66" style="fill:white;"/>
                </g>
            </g>
        </g>
    </g>
</svg>
