<?xml version="1.0" encoding="UTF-8" standalone="no"?>
<!DOCTYPE svg PUBLIC "-//W3C//DTD SVG 1.1//EN" "http://www.w3.org/Graphics/SVG/1.1/DTD/svg11.dtd">
<svg width="100%" height="100%" viewBox="0 0 32 32" version="1.1" xmlns="http://www.w3.org/2000/svg" xmlns:xlink="http://www.w3.org/1999/xlink" xml:space="preserve" xmlns:serif="http://www.serif.com/" style="fill-rule:evenodd;clip-rule:evenodd;stroke-linejoin:round;stroke-miterlimit:2;">
    <g transform="matrix(1,0,0,1,2.62606,17.4615)">
        <rect x="2.997" y="10.006" width="23.166" height="3.02" style="fill:white;"/>
    </g>
    <g transform="matrix(6.12323e-17,-1,1,6.12323e-17,-24.8528,30.6462)">
        <path d="M1.645,27.061L3.132,30.034L0.159,30.034L1.645,27.061Z" style="fill:white;"/>
    </g>
    <g id="_4x4" serif:id="4x4" transform="matrix(0.572552,0,0,0.572552,2.42566,0.195658)">
        <g id="_4x41" serif:id="4x4">
            <g id="_2x2" serif:id="2x2" transform="matrix(0.853365,0,0,0.938069,0.468274,-1.10045)">
                <rect x="2.039" y="3.154" width="11.718" height="10.66" style="fill:white;"/>
            </g>
            <g id="_2x21" serif:id="2x2" transform="matrix(0.853365,0,0,0.938069,11.4683,-1.10045)">
                <rect x="2.039" y="3.154" width="11.718" height="10.66" style="fill:white;"/>
            </g>
            <g id="_2x22" serif:id="2x2" transform="matrix(0.853365,0,0,0.938069,0.468274,9.89955)">
                <rect x="2.039" y="3.154" width="11.718" height="10.66" style="fill:white;"/>
            </g>
            <g id="_2x23" serif:id="2x2" transform="matrix(0.853365,0,0,0.938069,11.4683,9.89955)">
                <rect x="2.039" y="3.154" width="11.718" height="10.66" style="fill:white;"/>
            </g>
        </g>
        <g id="_4x42" serif:id="4x4" transform="matrix(1,0,0,1,22,0)">
            <g id="_2x24" serif:id="2x2" transform="matrix(0.853365,0,0,0.938069,0.468274,-1.10045)">
                <rect x="2.039" y="3.154" width="11.718" height="10.66" style="fill:white;"/>
            </g>
            <g id="_2x25" serif:id="2x2" transform="matrix(0.853365,0,0,0.938069,11.4683,-1.10045)">
                <rect x="2.039" y="3.154" width="11.718" height="10.66" style="fill:white;"/>
            </g>
            <g id="_2x26" serif:id="2x2" transform="matrix(0.853365,0,0,0.938069,0.468274,9.89955)">
                <rect x="2.039" y="3.154" width="11.718" height="10.66" style="fill:white;"/>
            </g>
            <g id="_2x27" serif:id="2x2" transform="matrix(0.853365,0,0,0.938069,11.4683,9.89955)">
                <rect x="2.039" y="3.154" width="11.718" height="10.66" style="fill:white;"/>
            </g>
        </g>
        <g id="_4x43" serif:id="4x4" transform="matrix(1,0,0,1,0,22)">
            <g id="_2x28" serif:id="2x2" transform="matrix(0.853365,0,0,0.938069,0.468274,-1.10045)">
                <rect x="2.039" y="3.154" width="11.718" height="10.66" style="fill:white;"/>
            </g>
            <g id="_2x29" serif:id="2x2" transform="matrix(0.853365,0,0,0.938069,11.4683,-1.10045)">
                <rect x="2.039" y="3.154" width="11.718" height="10.66" style="fill:white;"/>
            </g>
            <g id="_2x210" serif:id="2x2" transform="matrix(0.853365,0,0,0.938069,0.468274,9.89955)">
                <rect x="2.039" y="3.154" width="11.718" height="10.66" style="fill:white;"/>
            </g>
            <g id="_2x211" serif:id="2x2" transform="matrix(0.853365,0,0,0.938069,11.4683,9.89955)">
                <rect x="2.039" y="3.154" width="11.718" height="10.66" style="fill:white;"/>
            </g>
        </g>
        <g id="_4x44" serif:id="4x4" transform="matrix(1,0,0,1,22,22)">
            <g id="_2x212" serif:id="2x2" transform="matrix(0.853365,0,0,0.938069,0.468274,-1.10045)">
                <rect x="2.039" y="3.154" width="11.718" height="10.66" style="fill:white;"/>
            </g>
            <g id="_2x213" serif:id="2x2" transform="matrix(0.853365,0,0,0.938069,11.4683,-1.10045)">
                <rect x="2.039" y="3.154" width="11.718" height="10.66" style="fill:white;"/>
            </g>
            <g id="_2x214" serif:id="2x2" transform="matrix(0.853365,0,0,0.938069,0.468274,9.89955)">
                <rect x="2.039" y="3.154" width="11.718" height="10.66" style="fill:white;"/>
            </g>
            <g id="_2x215" serif:id="2x2" transform="matrix(0.853365,0,0,0.938069,11.4683,9.89955)">
                <rect x="2.039" y="3.154" width="11.718" height="10.66" style="fill:white;"/>
            </g>
        </g>
    </g>
</svg>
