<?xml version="1.0" encoding="UTF-8" standalone="no"?>
<!DOCTYPE svg PUBLIC "-//W3C//DTD SVG 1.1//EN" "http://www.w3.org/Graphics/SVG/1.1/DTD/svg11.dtd">
<svg width="100%" height="100%" viewBox="0 0 1024 1024" version="1.1" xmlns="http://www.w3.org/2000/svg" xmlns:xlink="http://www.w3.org/1999/xlink" xml:space="preserve" xmlns:serif="http://www.serif.com/" style="fill-rule:evenodd;clip-rule:evenodd;stroke-linejoin:round;stroke-miterlimit:2;">
    <g transform="matrix(1,0,0,1,-9.01408,12.9803)">
        <rect x="512" y="62.017" width="18.028" height="874.006"/>
    </g>
    <g transform="matrix(1,0,0,1.11134,0,-12.9263)">
        <g transform="matrix(1,0,0,1,38.9408,73.5549)">
            <path d="M195.425,42.546C293.732,42.546 373.544,122.359 373.544,220.665C373.544,318.971 293.732,398.783 195.425,398.783C97.119,398.783 17.307,318.971 17.307,220.665C17.307,122.359 97.119,42.546 195.425,42.546ZM253.837,131.245C236.723,131.245 222.828,145.139 222.828,162.254C222.828,179.368 236.723,193.262 253.837,193.262C270.951,193.262 284.845,179.368 284.845,162.254C284.845,145.139 270.951,131.245 253.837,131.245Z"/>
        </g>
        <g transform="matrix(1.16299,0.0355109,-0.0305201,0.999534,-94.885,-176.979)">
            <path d="M440.608,428.349L488.203,512L393.014,512L440.608,428.349Z"/>
        </g>
        <g transform="matrix(1.79367,0,0,1,-313.868,0)">
            <ellipse cx="373.774" cy="399.066" rx="21.691" ry="17.538"/>
        </g>
        <g transform="matrix(1.79367,0,0,1,-331.868,27.0756)">
            <ellipse cx="373.774" cy="399.066" rx="21.691" ry="17.538"/>
        </g>
        <g transform="matrix(1,0,0,1,22.3671,5.71822)">
            <ellipse cx="284.405" cy="230.09" rx="17.014" ry="18.431"/>
        </g>
        <g transform="matrix(1,0,0,0.899818,-35.0188,-11.5119)">
            <path d="M412.484,609.258L412.484,877.465C412.484,916.948 380.429,949.003 340.947,949.003L197.871,949.003C158.388,949.003 126.333,916.948 126.333,877.465L126.333,609.258C126.333,569.775 158.388,537.72 197.871,537.72L340.947,537.72C380.429,537.72 412.484,569.775 412.484,609.258Z"/>
        </g>
    </g>
    <g transform="matrix(-1,0,0,1.11134,1022.8,-12.9263)">
        <g transform="matrix(1,0,0,1,38.9408,73.5549)">
            <path d="M195.425,42.546C293.732,42.546 373.544,122.359 373.544,220.665C373.544,318.971 293.732,398.783 195.425,398.783C97.119,398.783 17.307,318.971 17.307,220.665C17.307,122.359 97.119,42.546 195.425,42.546ZM253.837,131.245C236.723,131.245 222.828,145.139 222.828,162.254C222.828,179.368 236.723,193.262 253.837,193.262C270.951,193.262 284.845,179.368 284.845,162.254C284.845,145.139 270.951,131.245 253.837,131.245Z"/>
        </g>
        <g transform="matrix(1.16299,0.0355109,-0.0305201,0.999534,-94.885,-176.979)">
            <path d="M440.608,428.349L488.203,512L393.014,512L440.608,428.349Z"/>
        </g>
        <g transform="matrix(1.79367,0,0,1,-313.868,0)">
            <ellipse cx="373.774" cy="399.066" rx="21.691" ry="17.538"/>
        </g>
        <g transform="matrix(1.79367,0,0,1,-331.868,27.0756)">
            <ellipse cx="373.774" cy="399.066" rx="21.691" ry="17.538"/>
        </g>
        <g transform="matrix(1,0,0,1,22.3671,5.71822)">
            <ellipse cx="284.405" cy="230.09" rx="17.014" ry="18.431"/>
        </g>
        <g transform="matrix(1,0,0,0.899818,-35.0188,-11.5119)">
            <path d="M412.484,609.258L412.484,877.465C412.484,916.948 380.429,949.003 340.947,949.003L197.871,949.003C158.388,949.003 126.333,916.948 126.333,877.465L126.333,609.258C126.333,569.775 158.388,537.72 197.871,537.72L340.947,537.72C380.429,537.72 412.484,569.775 412.484,609.258Z"/>
        </g>
    </g>
</svg>
