<?xml version="1.0" encoding="UTF-8" standalone="no"?>
<!DOCTYPE svg PUBLIC "-//W3C//DTD SVG 1.1//EN" "http://www.w3.org/Graphics/SVG/1.1/DTD/svg11.dtd">
<svg width="100%" height="100%" viewBox="0 0 1024 1024" version="1.1" xmlns="http://www.w3.org/2000/svg" xmlns:xlink="http://www.w3.org/1999/xlink" xml:space="preserve" xmlns:serif="http://www.serif.com/" style="fill-rule:evenodd;clip-rule:evenodd;stroke-linejoin:round;stroke-miterlimit:2;">
    <g id="PaintScraper">
        <g transform="matrix(1.48619,0,2.475e-16,0.689196,-160.596,390.357)">
            <rect x="137.915" y="437.003" width="522.096" height="428.349"/>
        </g>
        <g transform="matrix(1,0,0,1,0,15.9075)">
            <g transform="matrix(-8.34441e-17,-0.834332,1,-9.79311e-17,-313.307,870.116)">
                <rect x="233.104" y="357.679" width="50.479" height="188.935"/>
            </g>
            <g transform="matrix(-0.458109,-0.834332,0.876559,-0.481295,19.1516,1042.26)">
                <rect x="233.104" y="357.679" width="50.479" height="188.935"/>
            </g>
            <g transform="matrix(-0.737037,-0.562708,0.34245,-0.448541,438.8,878.167)">
                <rect x="233.104" y="357.679" width="50.479" height="188.935"/>
            </g>
            <g transform="matrix(-0.841272,0.105363,-0.0712998,-0.569295,675.917,682.227)">
                <rect x="233.104" y="357.679" width="50.479" height="188.935"/>
            </g>
            <g transform="matrix(-0.582086,0.529348,-0.256482,-0.282035,665.966,373.01)">
                <rect x="233.104" y="357.679" width="50.479" height="188.935"/>
            </g>
            <g transform="matrix(0.0584884,0.769853,-0.298564,0.022683,483.349,155.812)">
                <rect x="233.104" y="357.679" width="50.479" height="188.935"/>
            </g>
        </g>
        <g transform="matrix(1.49095,0.493348,-0.493348,1.49095,-116.767,-530.916)">
            <g transform="matrix(0.273809,0.193124,-0.184774,0.26197,431.439,342.342)">
                <rect x="691.417" y="194.518" width="84.507" height="408.155"/>
            </g>
            <g transform="matrix(0.730533,0.515262,-0.487835,0.691648,346.258,-246.269)">
                <rect x="691.417" y="194.518" width="84.507" height="408.155"/>
            </g>
        </g>
    </g>
</svg>
