<?xml version="1.0" encoding="UTF-8" standalone="no"?>
<!DOCTYPE svg PUBLIC "-//W3C//DTD SVG 1.1//EN" "http://www.w3.org/Graphics/SVG/1.1/DTD/svg11.dtd">
<svg width="100%" height="100%" viewBox="0 0 1024 1024" version="1.1" xmlns="http://www.w3.org/2000/svg" xmlns:xlink="http://www.w3.org/1999/xlink" xml:space="preserve" xmlns:serif="http://www.serif.com/" style="fill-rule:evenodd;clip-rule:evenodd;stroke-linejoin:round;stroke-miterlimit:2;">
    <g transform="matrix(1,0,0,1,13.262,83.8783)">
        <g transform="matrix(0.644153,0,0,0.644153,171.114,337.773)">
            <path d="M-163.095,419.696L-209.668,419.696L-209.668,-139.177L-163.095,-139.177L-163.095,419.696ZM-116.522,-139.177L-23.377,-139.177L-23.377,419.696L-116.522,419.696L-116.522,-139.177ZM23.196,-139.177L116.342,-139.177L116.342,419.696L23.196,419.696L23.196,-139.177ZM162.915,-139.177L256.06,-139.177L256.06,419.696L162.915,419.696L162.915,-139.177ZM302.633,-139.177L349.206,-139.177L349.206,419.696L302.633,419.696L302.633,-139.177Z"/>
        </g>
        <g transform="matrix(3.9443e-17,0.644153,-0.644153,3.9443e-17,871.768,383.18)">
            <path d="M-163.095,419.696L-209.668,419.696L-209.668,-139.177L-163.095,-139.177L-163.095,419.696ZM-116.522,-139.177L-23.377,-139.177L-23.377,419.696L-116.522,419.696L-116.522,-139.177ZM23.196,-139.177L116.342,-139.177L116.342,419.696L23.196,419.696L23.196,-139.177ZM162.915,-139.177L256.06,-139.177L256.06,419.696L162.915,419.696L162.915,-139.177ZM302.633,-139.177L349.206,-139.177L349.206,419.696L302.633,419.696L302.633,-139.177Z"/>
        </g>
        <g transform="matrix(0.614698,0,0,0.614698,223.565,184.692)">
            <path d="M398.887,429.13L398.887,490.628L304.275,396.016L398.887,301.404L398.887,362.902L468.115,362.902L468.115,301.404L562.727,396.016L468.115,490.628L468.115,429.13L398.887,429.13Z"/>
        </g>
    </g>
</svg>
